<svg width="32" height="32" viewBox="0 0 32 32" fill="none" xmlns="http://www.w3.org/2000/svg">
  <!-- Background circle -->
  <circle cx="16" cy="16" r="16" fill="#6A5ACD"/>
  
  <!-- Dollar sign -->
  <path d="M12 8V24M16 8V24M12 8C12 6.89543 12.8954 6 14 6H18C19.1046 6 20 6.89543 20 8V10C20 11.1046 19.1046 12 18 12H14C12.8954 12 12 12.8954 12 14V18C12 19.1046 12.8954 20 14 20H18C19.1046 20 20 19.1046 20 18V16" stroke="white" stroke-width="1.5" stroke-linecap="round" stroke-linejoin="round"/>
  
  <!-- Globe icon -->
  <path d="M22 16C22 19.3137 19.3137 22 16 22C12.6863 22 10 19.3137 10 16C10 12.6863 12.6863 10 16 10C19.3137 10 22 12.6863 22 16Z" stroke="white" stroke-width="1.5"/>
  <path d="M10 16H22M16 10V22" stroke="white" stroke-width="1.5"/>
  <path d="M12.5 12.5C13.5 13.5 14.5 14.5 16 16C17.5 17.5 18.5 18.5 19.5 19.5" stroke="white" stroke-width="1.5" stroke-linecap="round"/>
  <path d="M19.5 12.5C18.5 13.5 17.5 14.5 16 16C14.5 17.5 13.5 18.5 12.5 19.5" stroke="white" stroke-width="1.5" stroke-linecap="round"/>
</svg>
